# Blender 4.2.3 LTS
# www.blender.org
mtllib Tile11.mtl
o Cube
v -1.000000 -1.000000 1.000000
v 1.000000 -1.000000 1.000000
v -1.000000 -1.000000 -1.000000
v 1.000000 -1.000000 -1.000000
v -1.000000 -1.000000 1.000000
v 1.000000 -1.000000 1.000000
v 1.000000 -1.000000 -1.000000
v -1.000000 -1.000000 -1.000000
v -1.000000 -0.500000 1.000000
v 1.000000 -0.500000 1.000000
v 1.000000 -0.500000 -1.000000
v -1.000000 -0.500000 -1.000000
v 1.000000 -0.500000 -0.000000
v -1.000000 -0.500000 0.000000
v 0.000000 -0.500000 1.000000
v -0.000000 -0.500000 -1.000000
v -0.000000 -0.500000 0.000000
v 0.500000 -0.500000 1.000000
v 1.000000 -0.500000 -0.500000
v -0.500000 -0.500000 1.000000
v 1.000000 -0.500000 0.500000
v 0.500000 -0.500000 -1.000000
v -1.000000 -0.500000 -0.500000
v -0.500000 -0.500000 -1.000000
v -1.000000 -0.500000 0.500000
v 0.000000 -0.500000 0.500000
v -0.000000 -0.500000 -0.500000
v -0.500000 -0.500000 0.000000
v 0.500000 -0.500000 -0.000000
v 0.500000 -0.500000 -0.500000
v -0.500000 -0.500000 -0.500000
v -0.500000 -0.500000 0.500000
v 0.500000 -0.500000 0.500000
v 0.500000 1.000000 1.000000
v 1.000000 1.000000 1.000000
v 1.000000 1.000000 0.500000
v 0.500000 1.000000 -1.000000
v 0.000000 1.000000 -1.000000
v -0.500000 1.000000 -1.000000
v -1.000000 1.000000 -1.000000
v -1.000000 1.000000 0.500000
v -1.000000 1.000000 1.000000
v 1.000000 1.000000 -1.000000
v 1.000000 1.000000 -0.500000
v -0.500000 1.000000 1.000000
v -1.000000 1.000000 -0.500000
v -0.500000 1.000000 0.500000
v 0.500000 1.000000 0.500000
vn 1.0000 -0.0000 -0.0000
vn -0.0000 1.0000 -0.0000
vn -0.0000 -0.0000 -1.0000
vn -1.0000 -0.0000 -0.0000
vn -0.0000 -0.0000 1.0000
vn -0.0000 -1.0000 -0.0000
vt 0.375000 0.000000
vt 0.375000 0.750000
vt 0.875000 0.750000
vt 0.625000 0.750000
vt 0.375000 0.562500
vt 0.375000 0.375000
vt 0.375000 0.187500
vt 0.500000 0.187500
vt 0.625000 0.375000
vt 0.750000 0.562500
vt 0.812500 0.750000
vt 0.750000 0.750000
vt 0.687500 0.750000
vt 0.562500 0.750000
vt 0.500000 0.750000
vt 0.437500 0.750000
vt 0.375000 0.937500
vt 0.437500 0.937500
vt 0.500000 0.937500
vt 0.500000 1.000000
vt 0.437500 1.000000
vt 0.437500 0.812500
vt 0.500000 0.812500
vt 0.500000 0.875000
vt 0.437500 0.875000
vt 0.562500 0.812500
vt 0.625000 0.812500
vt 0.625000 0.875000
vt 0.562500 0.875000
vt 0.375000 0.812500
vt 0.375000 0.875000
vt 0.562500 0.937500
vt 0.562500 1.000000
vt 0.625000 0.937500
vt 0.625000 1.000000
vt 0.375000 1.000000
s 0
f 1/1/1 3/2/1 8/2/1 5/1/1
f 1/1/2 2/3/2 4/4/2 3/2/2
f 5/1/1 8/2/1 12/2/1 23/5/1 14/6/1 25/7/1 9/1/1
f 2/3/1 1/1/1 5/1/1 6/3/1
f 4/4/1 2/3/1 6/3/1 7/4/1
f 3/2/1 4/4/1 7/4/1 8/2/1
f 6/3/3 5/1/3 9/1/3 20/8/3 15/9/3 18/10/3 10/3/3
f 7/4/4 6/3/4 10/3/4 21/11/4 13/12/4 19/13/4 11/4/4
f 8/2/5 7/4/5 11/4/5 22/14/5 16/15/5 24/16/5 12/2/5
f 25/17/5 32/18/5 47/18/5 41/17/5
f 32/18/6 26/19/6 15/20/6 20/21/6
f 31/22/6 27/23/6 17/24/6 28/25/6
f 30/26/6 19/27/6 13/28/6 29/29/6
f 27/23/6 30/26/6 29/29/6 17/24/6
f 16/15/5 22/14/5 37/14/5 38/15/5
f 23/30/6 31/22/6 28/25/6 14/31/6
f 24/16/5 16/15/5 38/15/5 39/16/5
f 21/11/4 10/3/4 35/3/4 36/11/4
f 32/18/4 20/21/4 45/21/4 47/18/4
f 14/31/6 28/25/6 32/18/6 25/17/6
f 28/25/6 17/24/6 26/19/6 32/18/6
f 26/19/6 33/32/6 18/33/6 15/20/6
f 17/24/6 29/29/6 33/32/6 26/19/6
f 29/29/6 13/28/6 21/34/6 33/32/6
f 48/32/6 36/34/6 35/35/6 34/33/6
f 39/16/6 38/15/6 37/14/6 43/4/6 44/27/6 46/30/6 40/2/6
f 41/17/6 47/18/6 45/21/6 42/36/6
f 27/23/3 31/22/3 23/30/3 46/30/3 44/27/3 19/27/3 30/26/3
f 11/4/4 19/13/4 44/13/4 43/4/4
f 12/2/5 24/16/5 39/16/5 40/2/5
f 18/33/1 33/32/1 48/32/1 34/33/1
f 20/8/3 9/1/3 42/1/3 45/8/3
f 9/1/1 25/7/1 41/7/1 42/1/1
f 10/3/3 18/10/3 34/10/3 35/3/3
f 22/14/5 11/4/5 43/4/5 37/14/5
f 33/32/5 21/34/5 36/34/5 48/32/5
f 23/5/1 12/2/1 40/2/1 46/5/1
